<svg width="114" height="94" viewBox="0 0 114 94" fill="none" xmlns="http://www.w3.org/2000/svg">
<path d="M94.8431 7.96464C107.188 28.4327 113.285 51.5202 111.006 78.0991C110.996 78.2116 110.944 78.3148 110.862 78.3826C101.514 86.1237 92.4561 90.8216 83.5256 93.9371C83.4561 93.9609 83.3817 93.9596 83.3128 93.9333C83.244 93.9071 83.1842 93.8572 83.1417 93.7907C81.0785 90.5535 79.2039 87.1406 77.5615 83.5567C77.4672 83.3456 77.5533 83.0914 77.7473 83.0081C80.7246 81.7431 83.5557 80.227 86.2788 78.4319C86.4933 78.2902 86.507 77.9435 86.3089 77.7771C85.7309 77.2933 85.1584 76.7848 84.6105 76.2764C84.508 76.1824 84.37 76.1639 84.2539 76.2271C66.5747 85.4334 47.2081 85.4334 29.3198 76.2271C29.2037 76.1685 29.0657 76.1885 28.9659 76.281C28.4194 76.7895 27.8455 77.2933 27.273 77.7771C27.0749 77.9435 27.0913 78.2902 27.3072 78.4319C30.0303 80.1931 32.8614 81.7432 35.8346 83.0143C36.0272 83.0975 36.1188 83.3456 36.0231 83.5567C34.4163 87.1452 32.5417 90.5581 30.4402 93.7953C30.3487 93.9263 30.1984 93.9864 30.0563 93.9371C21.1682 90.8216 12.1107 86.1237 2.76209 78.3826C2.68421 78.3148 2.62819 78.207 2.61999 78.0945C0.715301 55.1041 4.5971 31.8256 18.7675 7.96002C18.8017 7.89684 18.8536 7.84754 18.9137 7.81826C25.8862 4.20969 33.356 1.55488 41.1633 0.0387219C41.3054 0.0140689 41.4475 0.0880277 41.5213 0.229782C42.486 2.15579 43.5886 4.62571 44.3346 6.64417C52.5642 5.22662 60.9221 5.22662 69.3238 6.64417C70.0698 4.66885 71.1342 2.15579 72.0948 0.229782C72.129 0.159459 72.182 0.10312 72.2463 0.0688089C72.3106 0.0344973 72.3828 0.0239672 72.4527 0.0387219C80.2642 1.5595 87.734 4.21431 94.701 7.81826C94.7625 7.84754 94.813 7.89684 94.8431 7.96464ZM48.5184 51.6774C48.6045 44.8809 44.2103 39.2569 38.6943 39.2569C33.2235 39.2569 28.8717 44.8316 28.8717 51.6774C28.8717 58.5216 33.3096 64.0963 38.6943 64.0963C44.1666 64.0963 48.5184 58.5216 48.5184 51.6774ZM84.8387 51.6774C84.9248 44.8809 80.5306 39.2569 75.016 39.2569C69.5438 39.2569 65.192 44.8316 65.192 51.6774C65.192 58.5216 69.6299 64.0963 75.016 64.0963C80.5306 64.0963 84.8387 58.5216 84.8387 51.6774Z" fill="#5865F2"/>
</svg>
