<svg width="75" height="48" viewBox="0 0 75 48" fill="none" xmlns="http://www.w3.org/2000/svg">
<path d="M69.075 22.1296L40.4227 3.79205C40.0307 3.54034 39.565 3.34062 39.0522 3.20435C38.5394 3.06807 37.9896 2.99792 37.4344 2.99792C36.8791 2.99792 36.3293 3.06807 35.8165 3.20435C35.3038 3.34062 34.838 3.54034 34.4461 3.79205L28.4953 7.60055L36.0422 12.4306C36.9321 12.2367 37.8892 12.2068 38.8045 12.3441C39.7197 12.4815 40.5562 12.7806 41.2188 13.2075C41.8813 13.6343 42.3431 14.1717 42.5517 14.7583C42.7603 15.3449 42.7072 15.9573 42.3984 16.5256L49.6641 21.1756C50.7501 20.9368 51.9312 20.9434 53.0105 21.1943C54.0899 21.4452 55.0023 21.9252 55.5958 22.5544C56.1893 23.1835 56.428 23.9239 56.2721 24.652C56.1162 25.3801 55.5752 26.0521 54.7392 26.5559C53.9031 27.0598 52.8226 27.365 51.6776 27.4209C50.5326 27.4767 49.3922 27.2798 48.4465 26.8628C47.5009 26.4459 46.807 25.8342 46.4805 25.1296C46.1541 24.4249 46.2147 23.67 46.6523 22.9906L39.8672 18.6481V30.0736C40.895 30.3995 41.7174 30.9409 42.1972 31.6077C42.6771 32.2745 42.7855 33.0264 42.5044 33.7382C42.2233 34.4499 41.5697 35.0786 40.6524 35.5194C39.7351 35.9602 38.6095 36.1865 37.4632 36.1607C36.3168 36.1349 35.2188 35.8586 34.3522 35.3776C33.4855 34.8967 32.9024 34.2403 32.7001 33.5176C32.4978 32.795 32.6884 32.0499 33.2402 31.4063C33.7921 30.7627 34.6718 30.2595 35.7328 29.9806V18.4501C35.119 18.2889 34.561 18.0515 34.0911 17.7518C33.6212 17.452 33.2486 17.0956 32.9948 16.7033C32.741 16.3109 32.611 15.8903 32.6123 15.4657C32.6136 15.041 32.7462 14.6208 33.0023 14.2291L25.5727 9.47105L5.925 22.0501C5.53135 22.3009 5.21899 22.5991 5.00585 22.9274C4.79272 23.2557 4.683 23.6078 4.683 23.9633C4.683 24.3188 4.79272 24.6709 5.00585 24.9992C5.21899 25.3275 5.53135 25.6257 5.925 25.8766L34.5773 44.208C34.9693 44.4598 35.435 44.6595 35.9478 44.7958C36.4606 44.932 37.0104 45.0022 37.5656 45.0022C38.1209 45.0022 38.6707 44.932 39.1835 44.7958C39.6963 44.6595 40.162 44.4598 40.5539 44.208L69.075 25.9501C69.4687 25.6992 69.781 25.401 69.9941 25.0727C70.2073 24.7444 70.317 24.3923 70.317 24.0368C70.317 23.6813 70.2073 23.3292 69.9941 23.0009C69.781 22.6726 69.4687 22.3744 69.075 22.1236" fill="black"/>
<path d="M28.4953 7.60046L36.0422 12.4305C36.9321 12.2366 37.8892 12.2067 38.8045 12.3441C39.7197 12.4814 40.5563 12.7806 41.2188 13.2074C41.8813 13.6342 42.3432 14.1716 42.5517 14.7582C42.7603 15.3449 42.7072 15.9572 42.3984 16.5255L49.6641 21.1755C50.7501 20.9367 51.9312 20.9433 53.0105 21.1942C54.0899 21.4451 55.0023 21.9251 55.5958 22.5543C56.1893 23.1834 56.428 23.9238 56.2721 24.6519C56.1162 25.38 55.5752 26.052 54.7392 26.5558C53.9031 27.0597 52.8226 27.3649 51.6776 27.4208C50.5326 27.4766 49.3922 27.2797 48.4466 26.8627C47.5009 26.4458 46.807 25.8341 46.4805 25.1295C46.1541 24.4249 46.2147 23.6699 46.6524 22.9905L39.8672 18.648V30.0735C40.895 30.3994 41.7174 30.9408 42.1972 31.6077C42.6771 32.2745 42.7855 33.0264 42.5044 33.7381C42.2233 34.4498 41.5697 35.0785 40.6524 35.5193C39.7351 35.9601 38.6095 36.1864 37.4632 36.1606C36.3168 36.1348 35.2188 35.8585 34.3522 35.3776C33.4855 34.8966 32.9024 34.2402 32.7001 33.5176C32.4978 32.7949 32.6884 32.0498 33.2402 31.4062C33.7921 30.7626 34.6718 30.2594 35.7328 29.9805V18.45C35.119 18.2888 34.561 18.0515 34.0911 17.7517C33.6212 17.4519 33.2486 17.0955 32.9948 16.7032C32.741 16.3108 32.611 15.8902 32.6123 15.4656C32.6136 15.041 32.7462 14.6207 33.0023 14.229L25.5727 9.47096" fill="#DD4C35"/>
</svg>
