<svg width="100" height="86" viewBox="0 0 100 86" fill="none" xmlns="http://www.w3.org/2000/svg">
<g clip-path="url(#clip0_23_15)">
<mask id="mask0_23_15" style="mask-type:luminance" maskUnits="userSpaceOnUse" x="-10" y="-5" width="121" height="104">
<path d="M-9.93927 -4.78529H110.496V98.499H-9.93927V-4.78529Z" fill="white"/>
</mask>
<g mask="url(#mask0_23_15)">
<path d="M78.4593 72.2016C78.4593 76.8542 65.8927 80.6255 50.3911 80.6255C34.8895 80.6255 22.3229 76.8542 22.3229 72.2016C22.3229 67.549 34.8889 63.7763 50.3911 63.7763C65.8933 63.7763 78.4593 67.5538 78.4593 72.2016Z" fill="#A0DCF2"/>
</g>
<mask id="mask1_23_15" style="mask-type:luminance" maskUnits="userSpaceOnUse" x="34" y="69" width="32" height="24">
<path d="M57.9306 71.884C58.1219 71.3513 58.1536 70.5299 56.2367 70.9019C56.2367 70.9019 50.9983 71.5436 50.7485 76.7848L50.6292 86.8263H49.3702L49.2514 76.7848C49.0017 71.544 43.7638 70.9019 43.7638 70.9019C41.8525 70.5299 41.8776 71.3504 42.0688 71.8831C40.1898 69.1393 35.1583 69.4941 35.1583 69.4941C33.4114 70.0283 35.0334 70.9908 35.0334 70.9908C37.7766 71.8458 38.0275 74.4135 38.0275 74.4135V81.6673L38.3175 87.2753C38.9403 89.7732 40.4775 91.2498 41.9852 92.1191L58.0449 92.1034C59.9875 90.9725 61.9741 88.8298 61.9741 84.784V74.4135C61.9741 74.4135 62.2234 71.8458 64.9683 70.9908C64.9683 70.9908 66.5886 70.0278 64.8428 69.4941C64.8428 69.4941 64.6298 69.4798 64.2758 69.4788C62.9069 69.4788 59.4249 69.7036 57.9317 71.884M42.768 82.222V74.3074C42.768 73.5342 42.6091 72.8839 42.337 72.3373C44.1435 73.5452 44.2645 76.5715 44.2645 76.5715V86.4505C42.4664 85.3593 42.768 82.2206 42.768 82.2206M55.7427 76.5701C55.7427 76.5701 55.8637 73.5433 57.6697 72.3359C57.3981 72.8824 57.2392 73.5327 57.2392 74.3059V82.2211C57.2392 82.2211 57.5403 85.1379 55.7427 86.339V76.5701Z" fill="white"/>
</mask>
<g mask="url(#mask1_23_15)">
<path d="M78.4593 72.2016C78.4593 76.8542 65.8927 80.6255 50.3911 80.6255C34.8895 80.6255 22.3229 76.8542 22.3229 72.2016C22.3229 67.549 34.8889 63.7763 50.3911 63.7763C65.8933 63.7763 78.4593 67.5538 78.4593 72.2016Z" fill="#82BDE7"/>
</g>
<mask id="mask2_23_15" style="mask-type:luminance" maskUnits="userSpaceOnUse" x="-10" y="-5" width="121" height="104">
<path d="M-9.93927 -4.78529H110.496V98.499H-9.93927V-4.78529Z" fill="white"/>
</mask>
<g mask="url(#mask2_23_15)">
<path d="M18.3296 47.4309L17.5195 49.8519C17.5195 49.8519 17.3087 50.7269 18.27 50.8818C19.2736 50.8651 19.1916 50.0594 19.1214 49.7983L18.3296 47.4309Z" fill="#A0DCF2"/>
<path d="M99.9258 37.2808L99.9999 36.9662C91.7657 35.5541 83.3163 35.5398 78.1989 35.722C79.0386 33.1274 79.2917 30.1417 79.2917 26.8123C79.2917 22.0373 77.1997 18.2172 73.8035 15.3104C74.3974 13.6679 75.1902 10.019 73.0118 5.34872C73.0118 5.34872 69.1645 4.3025 60.4798 9.29027C57.0753 8.56059 53.4522 8.20005 49.8235 8.20005C45.8313 8.20005 41.7972 8.63614 38.0348 9.52122C29.0657 4.27333 25.1069 5.34825 25.1069 5.34825C22.522 10.895 24.12 14.9929 24.6051 16.0124C21.5674 18.824 19.7129 22.4122 19.7129 26.8118C19.7129 30.1336 20.1545 33.1131 21.2318 35.7028C16.0759 35.5422 7.93368 35.6039 -0.0117188 36.9652L0.0618807 37.2798C8.0491 35.9099 16.2415 35.8621 21.3611 36.0285C21.5981 36.564 21.8629 37.0804 22.1585 37.5873C17.0912 37.7274 8.43995 38.2806 0.148304 40.287L0.249782 40.5955C8.60667 38.5742 17.3338 38.0344 22.3519 37.9034C25.3795 42.7424 31.3484 45.8687 41.9673 46.8451C40.4596 47.7135 38.923 49.1901 38.2985 51.689C36.2449 52.5305 29.7437 54.5876 25.8423 48.8343C25.8423 48.8343 23.6589 45.4106 19.4793 45.1428C19.4793 45.1428 15.4258 45.095 19.1989 47.3089C19.1989 47.3089 21.9126 48.4054 23.7838 52.521C23.7838 52.521 26.2259 59.5476 38.0085 57.2931V64.5517C38.0085 64.5517 37.7593 67.1194 35.0144 67.9744C35.0144 67.9744 33.393 68.9374 35.1393 69.4711C35.1393 69.4711 42.7473 70.0066 42.7473 64.6583V56.7437C42.7473 56.7437 42.4463 53.6045 44.2433 52.5138V65.5233C44.2433 65.5233 44.1195 68.6252 42.2483 69.802C42.2483 69.802 41.001 71.7266 43.7448 71.1925C43.7448 71.1925 48.9827 70.5508 49.2325 65.3096L49.3518 52.1537H50.6102L50.7301 65.3096C50.9793 70.5503 56.2177 71.1925 56.2177 71.1925C58.961 71.7266 57.7137 69.802 57.7137 69.802C55.843 68.6257 55.7187 65.5233 55.7187 65.5233V52.6353C57.5158 53.8307 57.2152 56.7532 57.2152 56.7532V64.6679C57.2152 70.0157 64.8227 69.4806 64.8227 69.4806C66.5679 68.9465 64.9482 67.984 64.9482 67.984C62.2038 67.1233 61.954 64.5612 61.954 64.5612V54.1864C61.954 50.1411 59.9674 47.998 58.0248 46.8671C69.3435 45.9041 74.7832 42.7683 77.2878 37.8957C82.248 38.0124 91.1747 38.5307 99.7133 40.5974L99.8148 40.2889C91.3247 38.2352 82.4576 37.704 77.4467 37.5787C77.6842 37.0862 77.8911 36.5745 78.0751 36.0486C83.1518 35.8573 91.6397 35.8645 99.9063 37.2822" fill="#292929"/>
<path d="M68.22 26.5826C70.6594 28.4776 72.0862 30.7666 72.0862 33.2315C72.0862 44.7434 62.0789 45.0557 49.736 45.0557C37.393 45.0557 27.3846 43.4667 27.3846 33.2363C27.3846 30.7871 28.7919 28.513 31.2012 26.6256C35.219 23.4802 42.0203 25.1457 49.7349 25.1457C57.4193 25.1457 64.1949 23.4635 68.2184 26.5874" fill="#F5CDB5"/>
<path d="M42.3035 33.8231C42.3035 36.9933 40.2215 39.564 37.6534 39.564C35.0852 39.564 33.0021 36.9938 33.0021 33.8231C33.0021 30.6523 35.0852 28.0832 37.6534 28.0832C40.2215 28.0832 42.3035 30.6523 42.3035 33.8231Z" fill="white"/>
<path d="M40.8109 33.8954C40.8109 36.0089 39.417 37.7217 37.7108 37.7217C36.0046 37.7217 34.6107 36.0089 34.6107 33.8954C34.6107 31.7819 35.998 30.0672 37.7108 30.0672C39.4237 30.0672 40.8109 31.7809 40.8109 33.8954Z" fill="#B1645A"/>
<path d="M67.2526 33.8231C67.2526 36.9933 65.1707 39.564 62.6014 39.564C60.0321 39.564 57.9512 36.9938 57.9512 33.8231C57.9512 30.6523 60.0338 28.0832 62.6014 28.0832C65.169 28.0832 67.2526 30.6523 67.2526 33.8231Z" fill="white"/>
<path d="M65.76 33.8952C65.76 36.0087 64.3661 37.7215 62.6599 37.7215C60.9537 37.7215 59.5598 36.0087 59.5598 33.8952C59.5598 31.7817 60.9537 30.067 62.6599 30.067C64.3661 30.067 65.76 31.7807 65.76 33.8952ZM50.9643 38.916C50.9643 39.4668 50.4435 39.9134 49.8012 39.9134C49.1589 39.9134 48.6381 39.4668 48.6381 38.916C48.6381 38.3651 49.1583 37.9185 49.8012 37.9185C50.4441 37.9185 50.9643 38.3651 50.9643 38.916ZM47.092 41.4383C47.0756 41.3986 47.0685 41.3565 47.0711 41.3144C47.0737 41.2724 47.086 41.2311 47.1071 41.1931C47.1283 41.1551 47.158 41.1211 47.1945 41.0929C47.2311 41.0647 47.2737 41.043 47.32 41.029C47.3663 41.0149 47.4154 41.0089 47.4644 41.0111C47.5135 41.0133 47.5616 41.0238 47.6059 41.042C47.6502 41.0602 47.6899 41.0856 47.7227 41.1169C47.7556 41.1483 47.7809 41.1848 47.7973 41.2245C48.0961 41.949 48.8974 42.4357 49.7917 42.4357C50.6861 42.4357 51.4867 41.949 51.7867 41.2245C51.8031 41.1849 51.8284 41.1483 51.8612 41.117C51.8941 41.0857 51.9337 41.0603 51.978 41.0422C52.0223 41.024 52.0704 41.0135 52.1194 41.0113C52.1684 41.0091 52.2174 41.0152 52.2637 41.0292C52.31 41.0433 52.3526 41.065 52.3891 41.0931C52.4256 41.1213 52.4552 41.1553 52.4764 41.1933C52.4975 41.2313 52.5098 41.2725 52.5123 41.3145C52.5149 41.3565 52.5078 41.3986 52.4915 41.4383C52.2905 41.914 51.9235 42.3251 51.4405 42.6156C50.9574 42.9061 50.3817 43.062 49.7917 43.062C49.2017 43.062 48.626 42.9061 48.143 42.6156C47.6599 42.3251 47.2929 41.914 47.092 41.4383Z" fill="#B1645A"/>
<path d="M21.307 46.0036C21.307 46.27 20.9435 46.4847 20.4958 46.4847C20.048 46.4847 19.6851 46.2695 19.6851 46.0036C19.6851 45.7378 20.0475 45.5216 20.4958 45.5216C20.9441 45.5216 21.307 45.7368 21.307 46.0036ZM23.5529 47.0723C23.5529 47.3387 23.1894 47.5543 22.7417 47.5543C22.2939 47.5543 21.931 47.3391 21.931 47.0723C21.931 46.8055 22.2934 46.5913 22.7417 46.5913C23.19 46.5913 23.5529 46.8065 23.5529 47.0723ZM24.9257 48.459C24.9257 48.7244 24.5633 48.9401 24.1144 48.9401C23.6656 48.9401 23.3043 48.7249 23.3043 48.459C23.3043 48.1932 23.6667 47.977 24.1144 47.977C24.5621 47.977 24.9257 48.1922 24.9257 48.459ZM26.1718 50.0642C26.1718 50.3306 25.8094 50.5462 25.3617 50.5462C24.914 50.5462 24.5504 50.331 24.5504 50.0642C24.5504 49.7974 24.9129 49.5822 25.3617 49.5822C25.8105 49.5822 26.1718 49.7974 26.1718 50.0642ZM27.5446 51.5671C27.5446 51.8325 27.1822 52.0482 26.7339 52.0482C26.2856 52.0482 25.9226 51.833 25.9226 51.5671C25.9226 51.3013 26.2862 51.0851 26.7339 51.0851C27.1816 51.0851 27.5446 51.3003 27.5446 51.5671ZM29.4164 52.85C29.4164 53.1164 29.0539 53.332 28.6051 53.332C28.1562 53.332 27.7949 53.1169 27.7949 52.85C27.7949 52.5832 28.1574 52.369 28.6051 52.369C29.0528 52.369 29.4164 52.5842 29.4164 52.85Z" fill="#C5E6DA"/>
<path d="M32.0358 53.7065C32.0358 53.9718 31.6734 54.1875 31.2251 54.1875C30.7768 54.1875 30.4138 53.9723 30.4138 53.7065C30.4138 53.4406 30.7763 53.2245 31.2251 53.2245C31.674 53.2245 32.0358 53.4396 32.0358 53.7065Z" fill="#C5E6DA"/>
<path d="M34.643 53.7065C34.643 53.9718 34.2806 54.1875 33.8323 54.1875C33.384 54.1875 33.0211 53.9723 33.0211 53.7065C33.0211 53.4406 33.3835 53.2245 33.8323 53.2245C34.2812 53.2245 34.643 53.4396 34.643 53.7065Z" fill="#C5E6DA"/>
<path d="M37.2893 53.3339C37.2893 53.6003 36.9269 53.8159 36.4786 53.8159C36.0303 53.8159 35.6673 53.6007 35.6673 53.3339C35.6673 53.0671 36.0297 52.8519 36.4786 52.8519C36.9274 52.8519 37.2893 53.0671 37.2893 53.3339Z" fill="#C5E6DA"/>
</g>
</g>
<defs>
<clipPath id="clip0_23_15">
<rect width="100" height="86" fill="white"/>
</clipPath>
</defs>
</svg>
