<svg width="39" height="40" viewBox="0 0 39 40" fill="none" xmlns="http://www.w3.org/2000/svg">
<path d="M19.2764 0.276168C8.63173 0.428672 0.129637 9.60086 0.289558 20.7633C0.417493 29.693 6.04931 37.1898 13.7467 39.7525C14.7128 39.9258 15.0575 39.2952 15.0498 38.7614C15.0429 38.2794 15.0022 36.6876 14.9697 34.9989C9.62455 36.2983 8.44127 32.7073 8.44127 32.7073C7.53093 30.3838 6.2586 29.7807 6.2586 29.7807C4.49169 28.5513 6.37283 28.5502 6.37283 28.5502C8.31056 28.665 9.35759 30.5906 9.35759 30.5906C11.1211 33.6557 13.8985 32.7225 14.9911 32.1903C15.1454 30.8816 15.6322 29.9828 16.1763 29.4702C11.8874 29.0205 7.3617 27.352 7.25075 19.6077C7.21914 17.4011 7.94632 15.5874 9.15915 14.1544C8.95171 13.6482 8.26246 11.602 9.26926 8.80309C9.26926 8.80309 10.8802 8.23671 14.6013 10.7988C16.1325 10.329 17.7784 10.0808 19.4164 10.0496C21.0547 10.0338 22.7083 10.2348 24.2552 10.6605C27.8969 7.99291 29.5212 8.51295 29.5212 8.51295C30.6103 11.2818 29.9796 13.3469 29.7868 13.8588C31.043 15.2565 31.8168 17.0487 31.8484 19.2553C31.9596 27.018 27.4746 28.7918 23.1894 29.3537C23.8898 29.971 24.5235 31.1921 24.5505 33.0777C24.5892 35.782 24.5981 37.9587 24.6076 38.6244C24.6153 39.1623 24.9713 39.7875 25.9456 39.575C33.5622 36.7899 38.9699 29.1376 38.8421 20.2109C38.6821 9.04853 29.922 0.12365 19.2764 0.276168ZM7.63212 29.2398C7.59111 29.3408 7.44087 29.3731 7.30262 29.3061C7.16187 29.2422 7.08138 29.1064 7.12526 29.005C7.16528 28.901 7.31585 28.8701 7.45634 28.9373C7.59742 29.0013 7.6792 29.1383 7.63212 29.2398ZM8.59302 30.1133C8.50236 30.2039 8.32205 30.165 8.19809 30.0255C8.06999 29.8864 8.04367 29.6983 8.13558 29.6063C8.2291 29.5156 8.40399 29.5549 8.53241 29.694C8.66054 29.8348 8.6878 30.0215 8.59302 30.1133ZM9.25977 31.2389C9.14289 31.3266 8.94862 31.2487 8.82666 31.0707C8.70598 30.8927 8.70289 30.6772 8.82231 30.5891C8.94078 30.501 9.13214 30.5759 9.25567 30.7526C9.37608 30.9336 9.37917 31.1492 9.25977 31.2389ZM10.3787 32.5376C10.2748 32.6613 10.0493 32.6317 9.8822 32.4674C9.71132 32.3068 9.66108 32.0762 9.76531 31.9526C9.87049 31.8285 10.0973 31.8598 10.2657 32.0227C10.4353 32.183 10.4897 32.4152 10.3787 32.5376ZM11.8069 32.961C11.7625 33.12 11.5468 33.195 11.3275 33.1309C11.1085 33.0647 10.9632 32.8814 11.0049 32.7208C11.048 32.5608 11.2646 32.4827 11.4856 32.5515C11.7043 32.6173 11.8499 32.7994 11.8069 32.961ZM13.4276 33.126C13.4355 33.2926 13.2523 33.4335 13.0231 33.4398C12.7927 33.4485 12.6044 33.3163 12.5995 33.1523C12.5971 32.984 12.7761 32.8445 13.0065 32.8372C13.2356 32.8292 13.4253 32.9604 13.4276 33.126ZM15.0163 33.0394C15.0461 33.2016 14.8892 33.3709 14.6622 33.4187C14.4391 33.4648 14.2305 33.3673 14.1997 33.2064C14.1696 33.0401 14.3293 32.8708 14.5522 32.8244C14.7795 32.7797 14.9849 32.8745 15.0163 33.0394Z" fill="white"/>
</svg>
