<svg width="94" height="82" viewBox="0 0 94 82" fill="none" xmlns="http://www.w3.org/2000/svg">
<path d="M18 10H77.8252V72.1262H18" fill="#F7DF1E"/>
<path d="M53.8398 56.5781C55.5664 59.6367 57.8516 61.166 60.6953 61.166C64.25 61.166 66.0273 59.7422 66.0273 56.8945C66.0273 55.1543 63.7422 53.5723 60.0859 51.9902C53.2812 49.6699 49.9297 45.7148 50.0312 40.125C50.0312 34.4297 54.1445 30 60.6953 30C65.5703 30 69.0234 32.0566 71.0547 36.1699L65.418 39.9668C64.1992 37.6465 62.625 36.5391 60.6953 36.6445C58.4609 36.75 57.293 37.8574 57.1914 39.9668C57.1914 42.1816 58.5625 43.1309 63.1328 45.1875C69.6836 47.877 73.3398 50.8828 73.3398 57.3691C73.0352 64.2246 69.0234 67.7578 61.3047 67.9688C54.9062 67.9688 50.3867 65.3848 47.7461 60.2168L53.8398 56.5781ZM27.9414 57.2109C29.1602 59.2676 29.9219 61.166 32.9688 61.166C35.4062 61.166 36.625 59.584 36.625 56.4199V30.1582H43.9375V56.1035C43.8359 63.5918 40.1797 67.3887 32.9688 67.4941C27.5859 67.3887 23.9297 65.0684 22 60.5332L27.9414 57.2109Z" fill="black"/>
</svg>
