<svg width="100" height="86" viewBox="0 0 100 86" fill="none" xmlns="http://www.w3.org/2000/svg">
<g clip-path="url(#clip0_23_46)">
<path d="M9.61212 9.0752C9.61212 6.5752 10.5172 4.5127 12.3273 2.8877C14.1374 1.2627 16.4905 0.450195 19.3867 0.450195C22.2311 0.450195 24.5325 1.2502 26.2909 2.8502C28.101 4.5002 29.0061 6.6502 29.0061 9.3002C29.0061 11.7002 28.1269 13.7002 26.3685 15.3002C24.5584 16.9502 22.1794 17.7752 19.2315 17.7752H19.1539C16.3095 17.7752 14.0081 16.9502 12.2497 15.3002C10.4913 13.6502 9.61212 11.5752 9.61212 9.0752ZM10.6206 74.7002V24.6002H27.8424V74.7002H10.6206ZM37.3842 74.7002H54.6061V46.7252C54.6061 44.9752 54.8129 43.6252 55.2267 42.6752C55.9507 40.9752 57.0497 39.5377 58.5236 38.3627C59.9976 37.1877 61.8465 36.6002 64.0703 36.6002C69.8626 36.6002 72.7588 40.3752 72.7588 47.9252V74.7002H89.9806V45.9752C89.9806 38.5752 88.1705 32.9627 84.5503 29.1377C80.9301 25.3127 76.1463 23.4002 70.1988 23.4002C63.5273 23.4002 58.3297 26.1752 54.6061 31.7252V31.8752H54.5285L54.6061 31.7252V24.6002H37.3842C37.4877 26.2002 37.5394 31.1752 37.5394 39.5252C37.5394 47.8752 37.4877 59.6002 37.3842 74.7002Z" fill="black"/>
</g>
<defs>
<clipPath id="clip0_23_46">
<rect width="80" height="75" fill="white" transform="translate(10)"/>
</clipPath>
</defs>
</svg>
