<svg width="70" height="53" viewBox="0 0 70 53" fill="none" xmlns="http://www.w3.org/2000/svg">
<g clip-path="url(#clip0_12_2)">
<path fill-rule="evenodd" clip-rule="evenodd" d="M0 0H70V53H0V0Z" fill="white"/>
<path fill-rule="evenodd" clip-rule="evenodd" d="M66.8798 25.4343C66.8798 24.9991 67.2883 24.6708 67.8131 24.6708C68.3309 24.6708 68.7402 24.9991 68.7402 25.4343C68.7402 25.877 68.3309 26.2025 67.8131 26.2025C67.2883 26.2025 66.8798 25.877 66.8798 25.4343ZM67.8131 26.356C68.4374 26.356 68.9708 25.9669 68.9708 25.4343C68.9708 24.9069 68.4374 24.5179 67.8131 24.5179C67.1827 24.5179 66.6492 24.9069 66.6492 25.4343C66.6492 25.9669 67.1827 26.356 67.8131 26.356ZM67.5705 25.5072H67.8011L68.1494 25.9669H68.3734L67.9976 25.5C68.1919 25.4808 68.34 25.398 68.34 25.2083C68.34 24.9991 68.1853 24.9069 67.8734 24.9069H67.3704V25.9669H67.5705V25.5072ZM67.5705 25.3711V25.0428H67.8429C67.9827 25.0428 68.1309 25.0672 68.1309 25.1984C68.1309 25.3615 67.9798 25.3711 67.8095 25.3711H67.5705ZM62.7758 29.2708H65.2946V27.8644H62.8375V26.7077H65.5187L65.5216 25.2897H60.5794V28.7236C59.8757 27.7693 57.4854 28.003 57.2428 27.2075C57.1117 26.7789 57.5315 26.4885 58.2952 26.4885C59.0589 26.4885 59.7406 26.8952 59.7406 26.8952L60.525 25.676C60.525 25.676 59.5957 25.1731 57.8616 25.1602C55.7764 25.1445 54.9095 26.5201 54.9302 27.2551C54.931 27.2815 54.928 27.3062 54.923 27.3302C54.2925 26.0937 52.7306 25.1885 50.8582 25.0758L50.8368 24.9413C50.8368 24.9413 51.3317 25.0194 51.6575 24.9999C52.2462 24.9647 53.6087 24.062 54.94 24.0735C56.0705 24.0834 57.9524 25.0686 58.6558 25.1638C59.2096 25.2385 59.6552 25.0466 59.6552 25.0466C59.6552 25.0466 59.2659 25.183 58.7252 25.034C58.3046 24.9179 56.3491 23.5577 54.7232 23.6047C53.0981 23.6515 52.1833 24.7068 51.5024 24.7068C49.6442 24.6598 49.9383 20.9786 46.7949 20.9082C43.9002 20.8436 43.2959 23.968 40.9114 23.9798C39.5645 23.9861 38.9133 23.3702 38.7899 23.4169C38.6657 23.464 38.7899 23.5693 38.7281 23.5929C38.6657 23.6163 38.4797 23.6515 38.2324 23.7337C38.1275 23.7727 37.8217 23.9608 37.4891 24.1041C37.1067 24.2679 36.7039 24.3878 36.7613 24.4255C36.8699 24.4959 37.8144 24.3081 38.5266 24.2965C39.2387 24.285 40.3224 24.8239 41.9021 24.8005C42.0568 24.7653 42.0412 24.9061 41.9482 24.9999C41.8829 25.0661 41.734 25.1143 41.6512 25.1371C39.2042 25.1385 37.1905 26.4866 36.9225 28.221H33.2097V29.5175H35.3054C34.915 30.1862 34.1154 30.6459 33.1897 30.6459C31.8809 30.6459 30.8194 29.7286 30.8194 28.5977C30.8194 27.4663 31.8805 26.549 33.1897 26.549C34.0409 26.549 34.785 26.9378 35.203 27.5204L37.1742 26.8616C36.3785 25.8223 34.8936 25.1211 33.1893 25.1211C31.2116 25.1211 29.5298 26.0648 28.8783 27.3868V25.2902H26.674V29.2747L22.4745 25.252H20.2905V27.3827C19.6364 26.0324 17.8766 25.0634 15.8026 25.0634C13.4091 25.0634 11.4335 26.3532 11.0951 28.0313L10.4704 25.2897H8.30677L6.495 28.8042L4.68322 25.2897H2.51883L1.02917 31.8299H3.14382L4.03717 28.0899L6.01854 31.8299H6.97073L8.95209 28.0899L9.84545 31.8299H11.9601L11.5752 30.1413C12.369 31.2557 13.9625 32.0182 15.8023 32.0182C17.8762 32.0182 19.6361 31.0495 20.2901 29.6987V31.8296H22.4494V27.7701L26.6638 31.8296H28.8783V29.8075C29.5298 31.1298 31.2116 32.0732 33.1893 32.0732C35.0501 32.0732 36.6139 31.2461 37.3195 30.0503C38.069 31.2538 39.7268 32.0916 41.6552 32.0916C43.6616 32.0916 45.3753 31.1851 46.0776 29.9027C46.8039 31.1458 48.4926 32.0179 50.4616 32.0179C53.093 32.0179 55.2258 30.4611 55.2258 28.5408C55.2258 28.5161 55.1761 28.3291 55.1754 28.3052C56.2895 29.0698 58.5629 29.1138 58.6046 29.8647C58.638 30.4619 58.0675 30.6621 57.3655 30.6154C56.5833 30.5629 55.4873 29.9898 55.4873 29.9898L54.558 31.2874C54.558 31.2874 55.471 31.991 57.6136 31.991C59.4442 31.991 60.2835 31.1892 60.5784 30.81V31.8299H65.5205V30.4122H62.7747V29.2708H62.7758ZM15.8026 30.4388C15.1378 30.4388 14.5001 30.2389 14.03 29.8829C13.5599 29.527 13.2958 29.0442 13.2958 28.5408C13.2958 28.0374 13.5599 27.5546 14.03 27.1987C14.5001 26.8427 15.1378 26.6428 15.8026 26.6428C16.4675 26.6428 17.1051 26.8427 17.5752 27.1987C18.0454 27.5546 18.3095 28.0374 18.3095 28.5408C18.3095 29.0442 18.0454 29.527 17.5752 29.8829C17.1051 30.2389 16.4675 30.4388 15.8026 30.4388ZM41.6555 30.5125C41.3213 30.5186 40.9888 30.474 40.6777 30.3814C40.3665 30.2888 40.083 30.15 39.8438 29.9731C39.6045 29.7963 39.4144 29.585 39.2846 29.3518C39.1548 29.1185 39.088 28.8679 39.088 28.6148C39.088 28.3616 39.1548 28.1111 39.2846 27.8778C39.4144 27.6445 39.6045 27.4332 39.8438 27.2564C40.083 27.0796 40.3665 26.9408 40.6777 26.8481C40.9888 26.7555 41.3213 26.7109 41.6555 26.717C42.3098 26.7289 42.932 26.9341 43.3892 27.2887C43.8464 27.6433 44.1024 28.1192 44.1024 28.6148C44.1024 29.1103 43.8464 29.5862 43.3892 29.9408C42.932 30.2954 42.3098 30.5006 41.6555 30.5125ZM46.0395 27.2521C45.3644 26.0953 43.854 25.2611 42.0619 25.1506C42.0717 25.1462 42.157 25.1112 42.2591 25.0233C42.3677 24.9295 42.213 24.8121 42.3059 24.742C43.4825 24.8124 44.2706 23.1373 46.5951 23.1241C48.6698 23.1126 49.5523 24.2729 50.4039 24.7887C49.8308 24.8943 48.8554 24.9881 48.9015 25.0582C49.2918 25.0463 49.6826 25.0519 50.072 25.0752C48.2355 25.1841 46.6957 26.0541 46.0395 27.2521ZM50.462 30.4388C50.1328 30.4388 49.8069 30.3898 49.5028 30.2944C49.1987 30.199 48.9224 30.0592 48.6896 29.883C48.4569 29.7068 48.2723 29.4976 48.1463 29.2673C48.0203 29.0371 47.9555 28.7903 47.9555 28.5411C47.9554 28.1656 48.1023 27.7985 48.3777 27.4862C48.6532 27.174 49.0447 26.9306 49.5029 26.7868C49.9611 26.6431 50.4652 26.6054 50.9517 26.6787C51.4381 26.7519 51.8849 26.9327 52.2356 27.1982C52.5863 27.4637 52.8251 27.802 52.9218 28.1703C53.0185 28.5386 52.9688 28.9203 52.7789 29.2672C52.5891 29.6141 52.2676 29.9106 51.8552 30.1191C51.4428 30.3277 50.9579 30.439 50.462 30.4388Z" fill="#CE3829"/>
</g>
<defs>
<clipPath id="clip0_12_2">
<rect width="70" height="53" fill="white"/>
</clipPath>
</defs>
</svg>
