<svg width="54" height="67" viewBox="0 0 54 67" fill="none" xmlns="http://www.w3.org/2000/svg">
<g clip-path="url(#clip0_10_194)">
<path d="M27 67C41.9117 67 54 52.0015 54 33.5C54 14.9985 41.9117 0 27 0C12.0883 0 0 14.9985 0 33.5C0 52.0015 12.0883 67 27 67Z" fill="#13AA52"/>
<path d="M34.2172 29.4067C32.5118 20.0679 28.4813 16.9973 28.0473 15.8242C27.5727 14.9965 27.0917 13.5243 27.0917 13.5243C27.0838 13.4995 27.0712 13.4556 27.0564 13.4131C27.0074 14.2408 26.9821 14.5601 26.3514 15.395C25.3747 16.3424 20.3639 21.5591 19.9563 32.1692C19.576 42.0647 25.7175 47.9613 26.5481 48.7131L26.6425 48.7962V48.7889C26.6477 48.8387 26.9061 51.1444 27.0875 53.5876H27.7383C27.891 51.8606 28.1198 50.1453 28.4238 48.4494L28.4766 48.4068C28.8481 48.0763 29.2023 47.7168 29.537 47.3305L29.575 47.288C31.3406 45.2643 34.5146 40.5834 34.4835 33.1205C34.477 31.8756 34.3879 30.6335 34.2172 29.4067ZM27.0184 43.126C27.0184 43.126 27.0184 29.2471 27.3876 29.2497C27.6755 29.2497 28.0484 47.1519 28.0484 47.1519C27.5358 47.0753 27.0184 44.2056 27.0184 43.126Z" fill="white"/>
</g>
<defs>
<clipPath id="clip0_10_194">
<rect width="54" height="67" fill="white"/>
</clipPath>
</defs>
</svg>
