<svg width="76" height="51" viewBox="0 0 76 51" fill="none" xmlns="http://www.w3.org/2000/svg">
<g clip-path="url(#clip0_12_31)">
<path d="M0 0H76V51H0" fill="white"/>
<path d="M8.16406 28.3887V33.9668H6.08594V28.3887C6.08594 27.9238 6.38281 27.625 6.97656 27.4922C7.57031 27.3594 8.16406 27.3262 8.75781 27.3926C9.35156 27.459 9.84635 27.7246 10.2422 28.1895L13.3594 32.9707L16.4766 28.1895C16.8724 27.7246 17.3672 27.459 17.9609 27.3926C18.5547 27.3262 19.1484 27.3594 19.7422 27.4922C20.3359 27.625 20.6328 27.9238 20.6328 28.3887V33.9668H18.5547V28.3887L15.2891 33.2695C14.9922 33.8008 14.349 34.0664 13.3594 34.0664C12.3698 34.0664 11.7266 33.8008 11.4297 33.2695M22.4141 29.4844V32.6719C22.4141 33.2695 23.6016 33.9668 26.125 33.9668H30.2812V34.4649C30.2812 34.8633 29.737 35.0625 28.6484 35.0625H22.4141V35.959H28.5C31.0729 35.959 32.3594 35.461 32.3594 34.4649V29.4844H30.2812V33.0703H25.6797C24.888 33.0703 24.4922 32.9043 24.4922 32.5723V29.4844M50.6172 16.5352C51.6562 16.336 52.3984 17.1328 51.5078 17.5313L50.6172 16.5352ZM56.5547 26.4961C55.0703 25.5664 53.7344 24.1387 52.5469 22.2129C51.8542 22.5449 51.4583 23.2754 51.3594 24.4043C51.2109 25.1016 48.8359 23.0098 50.4688 20.4199C50.6667 20.0215 50.6667 19.7559 50.4688 19.6231C48.3906 17.9297 49.4297 17.332 47.3516 15.6387C45.2734 13.9453 47.7969 14.0449 50.1719 15.4395C54.3281 15.2403 58.3359 18.2285 59.6719 20.2207C61.0078 22.2129 61.8984 23.9063 62.7891 24.0059C64.7682 24.4043 66.401 25.0352 67.6875 25.8985C66.1042 25.8985 64.8672 26.0645 63.9766 26.3965C64.7188 28.0899 67.5391 28.0899 69.6172 29.4844C68.1328 27.5918 65.7578 27.3926 65.3125 26.6953C67.2422 26.2969 67.3906 26.4961 68.875 26.1973C67.6875 25.0684 65.7578 24.1387 63.0859 23.4082C63.0859 23.4082 62.1953 22.4121 60.5625 19.9219C58.9297 17.4317 54.4766 14.8418 50.6172 14.8418C46.6094 12.75 44.5312 14.3438 46.7578 15.9375C48.9844 17.5313 47.3516 17.7305 49.875 19.9219C47.5 24.6035 52.3984 26.5957 52.3984 24.0059L52.5469 23.4082C53.8828 25.4004 54.625 25.2012 56.1094 26.2969" fill="#005C87"/>
<path d="M33.9922 33.0703H39.6328C40.7214 33.0703 41.2656 32.8711 41.2656 32.4727V31.6758C41.2656 31.3438 40.7214 31.1777 39.6328 31.1777H37.4062C35.7734 31.1777 33.9922 30.6797 33.9922 29.7832V28.9863C33.9922 28.0898 35.0312 27.4922 37.1094 27.4922H43.4922V28.3887H37.5547C36.6641 28.3887 36.2188 28.5879 36.2188 28.9863V29.584C36.2188 30.0488 36.6641 30.2812 37.5547 30.2812H40.375C42.0078 30.2812 43.3438 30.8789 43.3438 31.4766V32.5723C43.3438 33.4688 41.7109 33.9668 40.2266 33.9668H33.9922M50.4688 33.0703H48.6875C47.599 33.0703 47.0547 32.8047 47.0547 32.2734V29.1855C47.0547 28.6543 47.6484 28.3887 48.8359 28.3887H51.5078C52.6953 28.3887 53.2891 28.6543 53.2891 29.1855V32.373C53.2891 32.6387 53.0911 32.8379 52.6953 32.9707L51.0625 31.9746H48.6875M53.8828 33.668C54.7734 33.5352 55.2188 33.1035 55.2188 32.373V29.0859C55.2188 28.0234 53.9818 27.4922 51.5078 27.4922H48.3906C46.0156 27.4922 44.8281 27.9902 44.8281 28.9863V32.373C44.8281 33.4355 45.9661 33.9668 48.2422 33.9668H51.9531L53.5859 34.9629H56.1094M56.5547 27.4922H58.6328V32.373C58.6328 32.8379 59.2266 33.0703 60.4141 33.0703H65.9062V33.9668H60.2656C57.7917 33.9668 56.5547 33.4023 56.5547 32.2734" fill="#E4830F"/>
</g>
<defs>
<clipPath id="clip0_12_31">
<rect width="76" height="51" fill="white"/>
</clipPath>
</defs>
</svg>
