<svg width="79" height="72" viewBox="0 0 79 72" fill="none" xmlns="http://www.w3.org/2000/svg">
<g clip-path="url(#clip0_10_202)">
<path d="M36.913 0.0193755C36.7431 0.0334497 36.2025 0.0827097 35.7161 0.117895C24.4954 1.03976 13.9852 6.55683 7.32855 15.0366C3.6218 19.7514 1.25103 25.0996 0.35523 30.7644C0.038612 32.7419 0 33.3259 0 36.0071C0 38.6882 0.038612 39.2723 0.35523 41.2497C2.50206 54.7679 13.0585 66.1258 27.3759 70.334C29.9397 71.087 32.6425 71.6006 35.7161 71.9103C36.913 72.0302 42.087 72.0302 43.2839 71.9103C48.5893 71.3755 53.0837 70.1791 57.5163 68.1173C58.1959 67.8006 58.3272 67.7161 58.2345 67.6458C58.1728 67.6036 55.2769 64.0639 51.8017 59.7853L45.4849 52.0094L37.5694 41.3341C33.214 35.4652 29.6308 30.6659 29.5999 30.6659C29.569 30.6589 29.5381 35.4019 29.5227 41.1934C29.4995 51.3338 29.4918 51.742 29.3528 51.9813C29.152 52.3261 28.9976 52.4668 28.6732 52.6216C28.4261 52.7342 28.2099 52.7553 27.0438 52.7553H25.7078L25.3526 52.5512C25.1209 52.4175 24.951 52.2416 24.8352 52.0376L24.673 51.7208L24.6884 37.6115L24.7116 23.4951L24.951 23.2206C25.0746 23.0729 25.3371 22.8829 25.5225 22.7914C25.8391 22.6506 25.9626 22.6366 27.2986 22.6366C28.874 22.6366 29.1365 22.6929 29.5458 23.1011C29.6617 23.2136 33.9476 29.0966 39.0753 36.1829C44.2029 43.2693 51.2148 52.9453 54.6591 57.6953L60.9141 66.3299L61.2308 66.1398C64.034 64.4791 66.9994 62.1146 69.347 59.6516C74.3434 54.4231 77.5636 48.0475 78.6447 41.2497C78.9614 39.2723 79 38.6882 79 36.0071C79 33.3259 78.9614 32.7419 78.6447 30.7644C76.4979 17.2462 65.9415 5.88831 51.6241 1.68013C49.0989 0.934198 46.4116 0.420489 43.3998 0.110857C42.6584 0.0404864 37.554 -0.0369212 36.913 0.0193755ZM53.0837 21.7921C53.4543 21.961 53.7556 22.2847 53.8636 22.6225C53.9254 22.8055 53.9409 26.7181 53.9254 35.5355L53.9023 48.1882L51.4543 44.7682L48.9986 41.3482V32.1507C48.9986 26.2044 49.0295 22.8618 49.0757 22.6999C49.1993 22.3058 49.4696 21.9962 49.8403 21.8133C50.1569 21.6654 50.2728 21.6514 51.4852 21.6514C52.6281 21.6514 52.8288 21.6654 53.0837 21.7921Z" fill="black"/>
</g>
<defs>
<clipPath id="clip0_10_202">
<rect width="79" height="72" fill="white"/>
</clipPath>
</defs>
</svg>
