<svg width="100" height="58" viewBox="0 0 100 58" fill="none" xmlns="http://www.w3.org/2000/svg">
<g clip-path="url(#clip0_10_23)">
<path d="M49.4356 57.8327C49.097 57.8327 48.781 57.7473 48.4876 57.5978L45.4853 55.9113C45.0338 55.6765 45.2596 55.5911 45.395 55.5484C46.0045 55.3563 46.1174 55.3136 46.7494 54.972C46.8171 54.9293 46.9074 54.9506 46.9752 54.9933L49.2776 56.2956C49.3679 56.3383 49.4808 56.3383 49.5485 56.2956L58.5553 51.3641C58.6456 51.3214 58.6907 51.236 58.6907 51.1293V41.2877C58.6907 41.1809 58.6456 41.0955 58.5553 41.0529L49.5485 36.1427C49.4582 36.1 49.3454 36.1 49.2776 36.1427L40.2709 41.0529C40.1806 41.0955 40.1354 41.2023 40.1354 41.2877V51.1293C40.1354 51.2147 40.1806 51.3214 40.2709 51.3641L42.7314 52.7091C44.0632 53.3495 44.8984 52.6023 44.8984 51.8551V42.1416C44.8984 42.0135 45.0113 41.8854 45.1693 41.8854H46.3205C46.456 41.8854 46.5914 41.9922 46.5914 42.1416V51.8551C46.5914 53.5416 45.6208 54.5237 43.9277 54.5237C43.4086 54.5237 43.0022 54.5237 41.851 53.99L39.4808 52.7091C38.8939 52.3888 38.5327 51.7911 38.5327 51.1506V41.309C38.5327 40.6686 38.8939 40.0708 39.4808 39.7506L48.4876 34.8191C49.0519 34.5203 49.8194 34.5203 50.3837 34.8191L59.3905 39.7506C59.9774 40.0708 60.3386 40.6686 60.3386 41.309V51.1506C60.3386 51.7911 59.9774 52.3888 59.3905 52.7091L50.3837 57.6405C50.0903 57.7686 49.7517 57.8327 49.4356 57.8327ZM52.2122 51.0652C48.2618 51.0652 47.4492 49.3574 47.4492 47.9057C47.4492 47.7776 47.5621 47.6495 47.7201 47.6495H48.8939C49.0293 47.6495 49.1422 47.7349 49.1422 47.863C49.3228 48.9944 49.842 49.5495 52.2347 49.5495C54.1309 49.5495 54.9436 49.1439 54.9436 48.1832C54.9436 47.6282 54.7178 47.2225 51.7607 46.945C49.3002 46.7102 47.7652 46.1978 47.7652 44.3405C47.7652 42.6113 49.3002 41.5866 51.8736 41.5866C54.763 41.5866 56.1851 42.5259 56.3657 44.5753C56.3657 44.6394 56.3431 44.7034 56.298 44.7675C56.2528 44.8102 56.1851 44.8529 56.1174 44.8529H54.9436C54.8307 44.8529 54.7178 44.7675 54.6952 44.6607C54.4244 43.4866 53.7246 43.1023 51.8736 43.1023C49.7968 43.1023 49.5485 43.7854 49.5485 44.2978C49.5485 44.9169 49.842 45.109 52.6411 45.4506C55.4176 45.7922 56.7268 46.2832 56.7268 48.1192C56.7043 49.9978 55.079 51.0652 52.2122 51.0652Z" fill="#539E43"/>
<path d="M21.4898 19.3416C21.4898 18.9573 21.2641 18.5944 20.9029 18.4023L11.3318 13.1933C11.1738 13.1079 10.9932 13.0652 10.8126 13.0438H10.7223C10.5417 13.0438 10.3612 13.1079 10.2031 13.1933L0.632043 18.4023C0.270869 18.5944 0.0451355 18.9573 0.0451355 19.3416L0.0677089 33.3461C0.0677089 33.5382 0.180576 33.7304 0.361163 33.8158C0.541749 33.9225 0.767483 33.9225 0.925497 33.8158L6.61398 30.7416C6.97516 30.5495 7.20089 30.1866 7.20089 29.8023V23.2483C7.20089 22.8641 7.42663 22.5011 7.7878 22.309L10.2031 20.9854C10.3837 20.8787 10.5869 20.836 10.7901 20.836C10.9932 20.836 11.1964 20.8787 11.3544 20.9854L13.7697 22.309C14.1309 22.5011 14.3566 22.8641 14.3566 23.2483V29.8023C14.3566 30.1866 14.5824 30.5495 14.9436 30.7416L20.632 33.8158C20.8126 33.9225 21.0384 33.9225 21.219 33.8158C21.3995 33.7304 21.5124 33.5382 21.5124 33.3461L21.4898 19.3416Z" fill="#333333"/>
<path d="M67.4943 0.0640451C67.3138 -0.0213484 67.088 -0.0213484 66.93 0.0640451C66.7494 0.170787 66.6366 0.341574 66.6366 0.533709V14.4101C66.6366 14.5382 66.5688 14.6663 66.4334 14.7517C66.298 14.8158 66.1625 14.8158 66.0271 14.7517L63.6343 13.4495C63.2731 13.2573 62.8442 13.2573 62.4831 13.4495L52.9119 18.6798C52.5508 18.872 52.325 19.2349 52.325 19.6191V30.0585C52.325 30.4428 52.5508 30.8057 52.9119 30.9978L62.4831 36.2282C62.8442 36.4203 63.2731 36.4203 63.6343 36.2282L73.2054 30.9978C73.5666 30.8057 73.7923 30.4428 73.7923 30.0585V4.03484C73.7923 3.62922 73.5666 3.2663 73.2054 3.07416L67.4943 0.0640451ZM66.614 26.6214C66.614 26.7282 66.5688 26.8135 66.4785 26.8562L63.2054 28.6495C63.1151 28.6922 63.0022 28.6922 62.9119 28.6495L59.6388 26.8562C59.5485 26.8135 59.5034 26.7068 59.5034 26.6214V23.0349C59.5034 22.9281 59.5485 22.8427 59.6388 22.8001L62.9119 21.0068C63.0022 20.9641 63.1151 20.9641 63.2054 21.0068L66.4785 22.8001C66.5688 22.8427 66.614 22.9495 66.614 23.0349V26.6214Z" fill="#333333"/>
<path d="M99.3454 22.9495C99.7065 22.7573 99.9097 22.3944 99.9097 22.0101V19.4697C99.9097 19.0854 99.684 18.7225 99.3454 18.5303L89.842 13.3213C89.4808 13.1292 89.0519 13.1292 88.6907 13.3213L79.1196 18.5517C78.7584 18.7438 78.5327 19.1068 78.5327 19.491V29.9304C78.5327 30.3146 78.7584 30.6776 79.1196 30.8697L88.623 35.9933C88.9842 36.1854 89.4131 36.1854 89.7517 35.9933L95.5079 32.9618C95.6885 32.8764 95.8013 32.6843 95.8013 32.4922C95.8013 32.3 95.6885 32.1079 95.5079 32.0225L85.8916 26.7922C85.711 26.6854 85.5982 26.5146 85.5982 26.3225V23.0562C85.5982 22.8641 85.711 22.6719 85.8916 22.5865L88.8939 20.9641C89.0745 20.8573 89.3002 20.8573 89.4808 20.9641L92.4831 22.5865C92.6636 22.6933 92.7765 22.8641 92.7765 23.0562V25.618C92.7765 25.8101 92.8894 26.0023 93.07 26.0877C93.2505 26.1944 93.4763 26.1944 93.6569 26.0877L99.3454 22.9495Z" fill="#333333"/>
<path d="M89.1196 22.4584C89.1873 22.4157 89.2776 22.4157 89.3454 22.4584L91.1738 23.4618C91.2415 23.5045 91.2867 23.5685 91.2867 23.6539V25.6607C91.2867 25.7461 91.2415 25.8101 91.1738 25.8528L89.3454 26.8562C89.2776 26.8989 89.1873 26.8989 89.1196 26.8562L87.2912 25.8528C87.2235 25.8101 87.1783 25.7461 87.1783 25.6607V23.6539C87.1783 23.5685 87.2235 23.5045 87.2912 23.4618L89.1196 22.4584Z" fill="#539E43"/>
<path d="M37.4944 13.3641C37.1332 13.1719 36.7043 13.1719 36.3431 13.3641L26.8397 18.5517C26.4786 18.7439 26.2754 19.1068 26.2754 19.4911V29.8877C26.2754 30.272 26.5011 30.6349 26.8397 30.827L36.3431 36.0147C36.7043 36.2068 37.1332 36.2068 37.4944 36.0147L46.9977 30.827C47.3589 30.6349 47.5621 30.272 47.5621 29.8877V19.4911C47.5621 19.1068 47.3363 18.7439 46.9977 18.5517L37.4944 13.3641Z" fill="url(#paint0_linear_10_23)"/>
<mask id="mask0_10_23" style="mask-type:luminance" maskUnits="userSpaceOnUse" x="26" y="13" width="22" height="24">
<path d="M37.4944 13.3641C37.1332 13.1719 36.7043 13.1719 36.3431 13.3641L26.8397 18.5517C26.4786 18.7439 26.2754 19.1068 26.2754 19.4911V29.8877C26.2754 30.272 26.5011 30.6349 26.8397 30.827L36.3431 36.0147C36.7043 36.2068 37.1332 36.2068 37.4944 36.0147L46.9977 30.827C47.3589 30.6349 47.5621 30.272 47.5621 29.8877V19.4911C47.5621 19.1068 47.3363 18.7439 46.9977 18.5517L37.4944 13.3641Z" fill="white"/>
</mask>
<g mask="url(#mask0_10_23)">
<path d="M47.0203 18.5517L37.4718 13.3641C37.3815 13.3214 37.2686 13.2787 37.1783 13.2573L26.4785 30.5922C26.5688 30.6989 26.6817 30.7843 26.7946 30.8484L36.3431 36.036C36.614 36.1855 36.93 36.2282 37.2235 36.1428L47.2686 18.7652C47.2009 18.6798 47.1106 18.6158 47.0203 18.5517Z" fill="url(#paint1_linear_10_23)"/>
</g>
<mask id="mask1_10_23" style="mask-type:luminance" maskUnits="userSpaceOnUse" x="26" y="13" width="22" height="24">
<path d="M37.4944 13.3641C37.1332 13.1719 36.7043 13.1719 36.3431 13.3641L26.8397 18.5517C26.4786 18.7439 26.2754 19.1068 26.2754 19.4911V29.8877C26.2754 30.272 26.5011 30.6349 26.8397 30.827L36.3431 36.0147C36.7043 36.2068 37.1332 36.2068 37.4944 36.0147L46.9977 30.827C47.3589 30.6349 47.5621 30.272 47.5621 29.8877V19.4911C47.5621 19.1068 47.3363 18.7439 46.9977 18.5517L37.4944 13.3641Z" fill="white"/>
</mask>
<g mask="url(#mask1_10_23)">
<path fill-rule="evenodd" clip-rule="evenodd" d="M47.0429 30.827C47.3138 30.6776 47.5169 30.4214 47.6072 30.1439L37.1332 13.236C36.8623 13.1933 36.5688 13.2146 36.3205 13.3641L26.8397 18.5304L37.0655 36.1641C37.2009 36.1428 37.3589 36.1001 37.4943 36.036L47.0429 30.827Z" fill="url(#paint2_linear_10_23)"/>
<path fill-rule="evenodd" clip-rule="evenodd" d="M47.0429 30.8271L37.5169 36.0147C37.3815 36.0788 37.246 36.1214 37.088 36.1428L37.2686 36.463L47.8329 30.6776V30.5495L47.5621 30.1226C47.5169 30.4214 47.3137 30.6776 47.0429 30.8271Z" fill="url(#paint3_linear_10_23)"/>
<path fill-rule="evenodd" clip-rule="evenodd" d="M47.0429 30.8271L37.5169 36.0147C37.3815 36.0788 37.246 36.1214 37.088 36.1428L37.2686 36.463L47.8329 30.6776V30.5495L47.5621 30.1226C47.5169 30.4214 47.3137 30.6776 47.0429 30.8271Z" fill="url(#paint4_linear_10_23)"/>
</g>
</g>
<defs>
<linearGradient id="paint0_linear_10_23" x1="1477.78" y1="414.347" x2="516.821" y2="2010.88" gradientUnits="userSpaceOnUse">
<stop stop-color="#41873F"/>
<stop offset="0.3288" stop-color="#418B3D"/>
<stop offset="0.6352" stop-color="#419637"/>
<stop offset="0.9319" stop-color="#3FA92D"/>
<stop offset="1" stop-color="#3FAE2A"/>
</linearGradient>
<linearGradient id="paint1_linear_10_23" x1="926.201" y1="1278.22" x2="3466.63" y2="-181.185" gradientUnits="userSpaceOnUse">
<stop offset="0.1376" stop-color="#41873F"/>
<stop offset="0.4032" stop-color="#54A044"/>
<stop offset="0.7136" stop-color="#66B848"/>
<stop offset="0.9081" stop-color="#6CC04A"/>
</linearGradient>
<linearGradient id="paint2_linear_10_23" x1="-64.3047" y1="1160.53" x2="2134.72" y2="1160.53" gradientUnits="userSpaceOnUse">
<stop offset="0.0919165" stop-color="#6CC04A"/>
<stop offset="0.2864" stop-color="#66B848"/>
<stop offset="0.5968" stop-color="#54A044"/>
<stop offset="0.8624" stop-color="#41873F"/>
</linearGradient>
<linearGradient id="paint3_linear_10_23" x1="-1078.89" y1="348.892" x2="1120.14" y2="348.892" gradientUnits="userSpaceOnUse">
<stop offset="0.0919165" stop-color="#6CC04A"/>
<stop offset="0.2864" stop-color="#66B848"/>
<stop offset="0.5968" stop-color="#54A044"/>
<stop offset="0.8624" stop-color="#41873F"/>
</linearGradient>
<linearGradient id="paint4_linear_10_23" x1="1440.51" y1="-1308.16" x2="940.384" y2="1462.9" gradientUnits="userSpaceOnUse">
<stop stop-color="#41873F"/>
<stop offset="0.3288" stop-color="#418B3D"/>
<stop offset="0.6352" stop-color="#419637"/>
<stop offset="0.9319" stop-color="#3FA92D"/>
<stop offset="1" stop-color="#3FAE2A"/>
</linearGradient>
<clipPath id="clip0_10_23">
<rect width="100" height="58" fill="white"/>
</clipPath>
</defs>
</svg>
