<svg width="54" height="43" viewBox="0 0 54 43" fill="none" xmlns="http://www.w3.org/2000/svg">
<g clip-path="url(#clip0_10_199)">
<path d="M44.3988 13.9229C43.8387 13.7505 43.2582 13.5874 42.6605 13.4331C42.7588 13.0747 42.8489 12.7208 42.9291 12.3731C44.2449 6.66215 43.3846 2.06141 40.4467 0.546646C37.6296 -0.905809 33.0225 0.608608 28.3696 4.22905C27.9222 4.57718 27.4735 4.94578 27.025 5.33207C26.7262 5.07649 26.4278 4.8295 26.1302 4.59326C21.2538 0.722047 16.3659 -0.909333 13.4309 0.609811C10.6166 2.06648 9.78312 6.39161 10.9676 11.8039C11.082 12.3266 11.2157 12.8605 11.3669 13.4033C10.6751 13.5789 10.0073 13.766 9.36826 13.9652C3.65119 15.7473 0 18.5403 0 21.4374C0 24.4295 3.91955 27.4307 9.87433 29.2504C10.3443 29.394 10.8319 29.5298 11.3344 29.6587C11.1713 30.2458 11.0294 30.8211 10.9103 31.3822C9.7809 36.7005 10.6629 40.9235 13.4698 42.3709C16.369 43.8657 21.2348 42.3292 25.9728 38.6263C26.3473 38.3336 26.7231 38.0232 27.0996 37.6978C27.5876 38.118 28.0748 38.5156 28.5594 38.8886C33.1488 42.4196 37.6814 43.8454 40.4857 42.3939C43.3821 40.8947 44.3234 36.3583 43.1013 30.8389C43.008 30.4174 42.8994 29.9868 42.7774 29.5485C43.1191 29.4582 43.4546 29.3649 43.7817 29.268C49.9722 27.4341 54 24.4695 54 21.4374C54 18.5298 50.2311 15.718 44.3988 13.9229ZM43.0561 27.3102C42.7609 27.3976 42.4579 27.4821 42.1492 27.564C41.4658 25.6296 40.5434 23.5726 39.4147 21.4474C40.4918 19.3729 41.3785 17.3422 42.0428 15.4204C42.5952 15.5633 43.1313 15.714 43.648 15.8731C48.645 17.4111 51.6931 19.6852 51.6931 21.4374C51.6931 23.3038 48.4012 25.7267 43.0561 27.3102ZM40.8383 31.2395C41.3787 33.6801 41.4559 35.8867 41.0979 37.6116C40.7763 39.1616 40.1295 40.195 39.3298 40.6089C37.628 41.4896 33.9887 40.3448 30.0639 37.3251C29.614 36.9789 29.1608 36.6093 28.7061 36.2181C30.2277 34.7303 31.7484 33.0006 33.2326 31.0796C35.8431 30.8725 38.3094 30.5339 40.546 30.0716C40.6561 30.4689 40.754 30.8585 40.8383 31.2395ZM18.4098 40.4567C16.7471 40.9817 15.4229 40.9968 14.6224 40.5841C12.9191 39.7057 12.211 36.3151 13.1769 31.7668C13.2875 31.2459 13.4192 30.7109 13.571 30.164C15.7831 30.6013 18.2313 30.916 20.8481 31.1057C22.3423 32.9854 23.9069 34.7132 25.4836 36.2261C25.1391 36.5235 24.796 36.8065 24.4548 37.0733C22.3596 38.7107 20.2601 39.8724 18.4098 40.4567ZM10.6204 27.2988C7.98732 26.4941 5.81281 25.4483 4.32229 24.3071C2.98297 23.2816 2.30677 22.2635 2.30677 21.4374C2.30677 19.6793 5.23831 17.4369 10.1276 15.9128C10.7209 15.7279 11.3419 15.5536 11.9864 15.3899C12.6621 17.3551 13.5485 19.4098 14.6182 21.4876C13.5347 23.5962 12.6356 25.6836 11.9533 27.6719C11.4938 27.5538 11.0487 27.4296 10.6204 27.2988ZM13.2315 11.4078C12.2167 6.77069 12.8907 3.27263 14.5867 2.39485C16.3932 1.45975 20.3881 2.79301 24.5985 6.1356C24.8676 6.34925 25.1378 6.57286 25.4087 6.80421C23.8398 8.31046 22.2895 10.0253 20.8086 11.8939C18.2689 12.1044 15.8379 12.4425 13.6027 12.8952C13.4622 12.3898 13.3377 11.8933 13.2315 11.4078ZM36.5247 16.5503C35.9903 15.7251 35.4418 14.9194 34.8825 14.1357C36.6055 14.3305 38.2562 14.589 39.8064 14.9053C39.341 16.2389 38.761 17.6333 38.0781 19.0627C37.5883 18.2313 37.0702 17.3929 36.5247 16.5503ZM27.0258 8.27823C28.0898 9.3089 29.1554 10.4596 30.2035 11.7081C29.1473 11.6635 28.0781 11.6403 27 11.6403C25.9321 11.6403 24.8708 11.663 23.8211 11.7069C24.8703 10.4699 25.9451 9.32076 27.0258 8.27823ZM17.466 16.5646C16.9323 17.3921 16.4238 18.2258 15.9417 19.0612C15.2699 17.6367 14.6952 16.236 14.2257 14.8835C15.7664 14.5752 17.4094 14.3232 19.1214 14.1321C18.5543 14.923 18.0012 15.7348 17.466 16.5646ZM19.1707 28.8898C17.4019 28.7133 15.7342 28.4742 14.1939 28.1745C14.6709 26.7978 15.2583 25.3672 15.9443 23.9121C16.4276 24.7468 16.9381 25.5809 17.4752 26.4102C18.0222 27.2551 18.589 28.0827 19.1707 28.8898ZM27.0896 34.7419C25.9962 33.6872 24.9057 32.5205 23.8406 31.2655C24.8745 31.3018 25.9287 31.3204 27 31.3204C28.1007 31.3204 29.1887 31.2982 30.2597 31.2556C29.2081 32.5331 28.1464 33.7017 27.0896 34.7419ZM38.1001 23.8379C38.8219 25.3088 39.4303 26.7319 39.9134 28.0851C38.3477 28.4045 36.6573 28.6617 34.8762 28.8528C35.4368 28.0586 35.9901 27.239 36.5339 26.3961C37.084 25.5432 37.6063 24.6891 38.1001 23.8379ZM34.5357 25.3657C33.6915 26.6742 32.8249 27.9235 31.9451 29.1026C30.3427 29.2051 28.6873 29.2578 27 29.2578C25.3195 29.2578 23.6849 29.2112 22.1109 29.1198C21.1956 27.9252 20.3102 26.6723 19.4715 25.3769C18.6349 24.0851 17.8652 22.7823 17.1676 21.4869C17.865 20.1884 18.6329 18.8842 19.4646 17.5947L19.4644 17.595C20.2984 16.302 21.176 15.0552 22.0828 13.868C23.6888 13.7595 25.3356 13.7029 26.9999 13.7029C28.6717 13.7029 30.3207 13.7599 31.9262 13.8694C32.8192 15.0479 33.6909 16.2907 34.5281 17.5838C35.3748 18.8914 36.1526 20.187 36.856 21.4576C36.1547 22.75 35.3786 24.0586 34.5357 25.3657ZM39.2944 2.33349C41.1027 3.26584 41.8059 7.02602 40.6698 11.9568C40.5973 12.2714 40.5157 12.5919 40.4271 12.9166C38.1867 12.4544 35.754 12.1105 33.2069 11.8969C31.7231 10.0077 30.1855 8.29018 28.6421 6.80326C29.057 6.44636 29.4714 6.10604 29.8841 5.78489C33.8707 2.68292 37.5968 1.4582 39.2944 2.33349ZM27 17.1261C29.6631 17.1261 31.822 19.0563 31.822 21.4374C31.822 23.8184 29.6631 25.7487 27 25.7487C24.3369 25.7487 22.178 23.8184 22.178 21.4374C22.178 19.0563 24.3369 17.1261 27 17.1261Z" fill="#257BC2"/>
</g>
<defs>
<clipPath id="clip0_10_199">
<rect width="54" height="43" fill="white"/>
</clipPath>
</defs>
</svg>
