<svg width="63" height="46" viewBox="0 0 63 46" fill="none" xmlns="http://www.w3.org/2000/svg">
<g clip-path="url(#clip0_10_197)">
<path d="M31.5 0C23.1328 0 17.9648 5.07792 15.75 15.2338C18.9492 10.1558 22.6406 8.36364 26.8242 9.55844C29.2852 10.1558 30.7617 12.2468 32.7305 14.6364C35.9297 18.5195 39.375 23 47.25 23C55.6172 23 60.7852 17.9221 63 7.76623C59.8008 12.8442 56.1094 14.6364 51.9258 13.4416C49.4648 12.5455 47.9883 10.4545 46.0195 8.06493C42.8203 4.48052 39.375 0 31.5 0ZM15.75 23C7.38281 23 2.21484 28.0779 0 38.2338C3.19922 33.1558 6.89062 31.3636 11.0742 32.5584C13.5352 33.1558 15.0117 35.2467 16.9805 37.6364C20.1797 41.5195 23.625 46 31.5 46C39.8672 46 45.0352 40.9221 47.25 30.4675C44.0508 35.5455 40.3594 37.6364 36.1758 36.4416C33.7148 35.5455 32.2383 33.4545 30.2695 31.0649C27.0703 27.4805 23.625 23 15.75 23Z" fill="url(#paint0_linear_10_197)"/>
</g>
<defs>
<linearGradient id="paint0_linear_10_197" x1="-176.4" y1="1472" x2="5744.75" y2="4280.31" gradientUnits="userSpaceOnUse">
<stop stop-color="#2298BD"/>
<stop offset="1" stop-color="#0ED7B5"/>
</linearGradient>
<clipPath id="clip0_10_197">
<rect width="63" height="46" fill="white"/>
</clipPath>
</defs>
</svg>
