<svg width="63" height="61" viewBox="0 0 63 61" fill="none" xmlns="http://www.w3.org/2000/svg">
<g clip-path="url(#clip0_10_17)">
<path d="M0 0H63V61H0" fill="#3178C6"/>
<path d="M28.6699 33.8359H36.5449V28.9511H14.5195V33.8359H22.3945V55.6386H28.6699V33.8359ZM39.0059 54.4472C41.2244 55.5445 44.212 55.9365 46.8809 55.9365C49.1818 55.9365 52.1633 55.647 54.5098 54.2208C55.5064 53.5894 56.3555 52.7912 56.8477 51.7189C57.3398 50.6466 57.7213 49.4552 57.7213 47.9064C57.7102 43.0038 54.1172 41.3787 50.5723 39.8048C48.9628 39.0959 45.3428 37.951 45.3428 35.7421C45.3428 33.9622 47.4112 33.0579 50.0432 33.0496C52.0956 33.0496 54.8543 33.6965 56.5647 34.9129V29.3133C54.2551 28.4543 51.8347 28.2935 49.674 28.2887C43.614 28.2887 38.8877 30.7096 38.8459 36.2473C38.9062 40.4303 41.4693 42.2567 45.2443 43.9914C47.3004 44.8921 51.0977 46.0454 51.126 48.5426C51.0362 50.8742 48.1015 51.2292 46.401 51.2471C43.7481 51.2471 40.9426 50.2713 39.0059 48.7285V54.4472Z" fill="white"/>
</g>
<defs>
<clipPath id="clip0_10_17">
<rect width="63" height="61" fill="white"/>
</clipPath>
</defs>
</svg>
